{"asset":{"generator":"glTF-Transform v4.5.0","version":"2.0"},"accessors":[{"type":"VEC3","componentType":5126,"count":95148,"max":[0.14358511567115784,0.2895510792732239,0.26031577587127686],"min":[-0.19387827813625336,-0.2662350535392761,-0.22503581643104553],"bufferView":55,"byteOffset":0},{"type":"VEC3","componentType":5126,"count":95148,"bufferView":55,"byteOffset":12},{"type":"VEC2","componentType":5126,"count":95148,"bufferView":55,"byteOffset":24},{"type":"SCALAR","componentType":5125,"count":489087,"bufferView":56,"byteOffset":0},{"type":"SCALAR","componentType":5125,"count":389739,"bufferView":56,"byteOffset":1956348},{"type":"SCALAR","componentType":5123,"count":82290,"bufferView":56,"byteOffset":3515304},{"type":"SCALAR","componentType":5123,"count":146175,"bufferView":56,"byteOffset":3679884},{"type":"SCALAR","componentType":5123,"count":140346,"bufferView":56,"byteOffset":3972236},{"type":"SCALAR","componentType":5123,"count":114225,"bufferView":56,"byteOffset":4252928},{"type":"SCALAR","componentType":5123,"count":208098,"bufferView":56,"byteOffset":4481380},{"type":"SCALAR","componentType":5123,"count":97884,"bufferView":56,"byteOffset":4897576},{"type":"SCALAR","componentType":5123,"count":69990,"bufferView":56,"byteOffset":5093344},{"type":"SCALAR","componentType":5123,"count":116868,"bufferView":56,"byteOffset":5233324},{"type":"SCALAR","componentType":5123,"count":101064,"bufferView":56,"byteOffset":5467060},{"type":"SCALAR","componentType":5123,"count":75120,"bufferView":56,"byteOffset":5669188},{"type":"SCALAR","componentType":5125,"count":355581,"bufferView":56,"byteOffset":5819428},{"type":"SCALAR","componentType":5123,"count":70533,"bufferView":56,"byteOffset":7241752},{"type":"SCALAR","componentType":5123,"count":68385,"bufferView":56,"byteOffset":7382820},{"type":"SCALAR","componentType":5123,"count":51795,"bufferView":56,"byteOffset":7519592},{"type":"SCALAR","componentType":5123,"count":54822,"bufferView":56,"byteOffset":7623184},{"type":"SCALAR","componentType":5123,"count":53265,"bufferView":56,"byteOffset":7732828},{"type":"SCALAR","componentType":5123,"count":38292,"bufferView":56,"byteOffset":7839360},{"type":"SCALAR","componentType":5123,"count":31251,"bufferView":56,"byteOffset":7915944},{"type":"SCALAR","componentType":5123,"count":349917,"bufferView":56,"byteOffset":7978448},{"type":"SCALAR","componentType":5123,"count":142911,"bufferView":56,"byteOffset":8678284},{"type":"SCALAR","componentType":5123,"count":117195,"bufferView":56,"byteOffset":8964108},{"type":"SCALAR","componentType":5123,"count":281568,"bufferView":56,"byteOffset":9198500},{"type":"SCALAR","componentType":5123,"count":112122,"bufferView":56,"byteOffset":9761636},{"type":"SCALAR","componentType":5123,"count":92664,"bufferView":56,"byteOffset":9985880},{"type":"SCALAR","componentType":5123,"count":73113,"bufferView":56,"byteOffset":10171208},{"type":"SCALAR","componentType":5123,"count":66699,"bufferView":56,"byteOffset":10317436},{"type":"SCALAR","componentType":5123,"count":62379,"bufferView":56,"byteOffset":10450836},{"type":"SCALAR","componentType":5123,"count":62061,"bufferView":56,"byteOffset":10575596},{"type":"SCALAR","componentType":5123,"count":57084,"bufferView":56,"byteOffset":10699720},{"type":"SCALAR","componentType":5123,"count":45864,"bufferView":56,"byteOffset":10813888},{"type":"SCALAR","componentType":5123,"count":39024,"bufferView":56,"byteOffset":10905616},{"type":"SCALAR","componentType":5123,"count":36456,"bufferView":56,"byteOffset":10983664},{"type":"SCALAR","componentType":5123,"count":244272,"bufferView":56,"byteOffset":11056576},{"type":"SCALAR","componentType":5123,"count":35883,"bufferView":56,"byteOffset":11545120},{"type":"SCALAR","componentType":5123,"count":35283,"bufferView":56,"byteOffset":11616888},{"type":"SCALAR","componentType":5123,"count":34113,"bufferView":56,"byteOffset":11687456},{"type":"SCALAR","componentType":5123,"count":31029,"bufferView":56,"byteOffset":11755684},{"type":"SCALAR","componentType":5123,"count":28782,"bufferView":56,"byteOffset":11817744},{"type":"SCALAR","componentType":5123,"count":28089,"bufferView":56,"byteOffset":11875308},{"type":"SCALAR","componentType":5123,"count":24891,"bufferView":56,"byteOffset":11931488},{"type":"SCALAR","componentType":5123,"count":24105,"bufferView":56,"byteOffset":11981272},{"type":"SCALAR","componentType":5123,"count":24060,"bufferView":56,"byteOffset":12029484},{"type":"SCALAR","componentType":5123,"count":19305,"bufferView":56,"byteOffset":12077604},{"type":"SCALAR","componentType":5123,"count":210624,"bufferView":56,"byteOffset":12116216},{"type":"SCALAR","componentType":5123,"count":19287,"bufferView":56,"byteOffset":12537464},{"type":"SCALAR","componentType":5123,"count":16572,"bufferView":56,"byteOffset":12576040},{"type":"SCALAR","componentType":5123,"count":16323,"bufferView":56,"byteOffset":12609184},{"type":"SCALAR","componentType":5123,"count":14910,"bufferView":56,"byteOffset":12641832},{"type":"SCALAR","componentType":5123,"count":6672,"bufferView":56,"byteOffset":12671652},{"type":"SCALAR","componentType":5123,"count":202455,"bufferView":56,"byteOffset":12684996},{"type":"SCALAR","componentType":5123,"count":147246,"bufferView":56,"byteOffset":13089908},{"type":"SCALAR","componentType":5123,"count":179817,"bufferView":56,"byteOffset":13384400},{"type":"SCALAR","componentType":5123,"count":158409,"bufferView":56,"byteOffset":13744036},{"type":"VEC3","componentType":5126,"count":73348,"max":[0.1433408260345459,0.3265377879142761,0.18107543885707855],"min":[-0.1929934024810791,-0.2877505421638489,-0.15060484409332275],"bufferView":57,"byteOffset":0},{"type":"VEC3","componentType":5126,"count":73348,"bufferView":57,"byteOffset":12},{"type":"VEC2","componentType":5126,"count":73348,"bufferView":57,"byteOffset":24},{"type":"VEC3","componentType":5126,"count":15174,"max":[0.07054908573627472,0.0467565655708313,0.03763603791594505],"min":[-0.06504814326763153,-0.041198909282684326,-0.0351254977285862],"bufferView":58,"byteOffset":0},{"type":"VEC3","componentType":5126,"count":15174,"bufferView":58,"byteOffset":12},{"type":"VEC2","componentType":5126,"count":15174,"bufferView":58,"byteOffset":24},{"type":"VEC3","componentType":5126,"count":26827,"max":[0.0941234827041626,0.08238999545574188,0.125091552734375],"min":[-0.07447850704193115,-0.11017593741416931,-0.07021331042051315],"bufferView":59,"byteOffset":0},{"type":"VEC3","componentType":5126,"count":26827,"bufferView":59,"byteOffset":12},{"type":"VEC2","componentType":5126,"count":26827,"bufferView":59,"byteOffset":24},{"type":"VEC3","componentType":5126,"count":27066,"max":[0.06713052093982697,0.1304166167974472,0.08551010489463806],"min":[-0.10083822906017303,-0.11272455006837845,-0.09864059090614319],"bufferView":60,"byteOffset":0},{"type":"VEC3","componentType":5126,"count":27066,"bufferView":60,"byteOffset":12},{"type":"VEC2","componentType":5126,"count":27066,"bufferView":60,"byteOffset":24},{"type":"VEC3","componentType":5126,"count":23209,"max":[0.18588310480117798,0.26654064655303955,0.13891524076461792],"min":[-0.06732888519763947,-0.14521779119968414,-0.10811693221330643],"bufferView":61,"byteOffset":0},{"type":"VEC3","componentType":5126,"count":23209,"bufferView":61,"byteOffset":12},{"type":"VEC2","componentType":5126,"count":23209,"bufferView":61,"byteOffset":24},{"type":"VEC3","componentType":5126,"count":39041,"max":[0.2175132930278778,0.17637643218040466,0.2045290470123291],"min":[-0.2270362675189972,-0.05832281708717346,-0.2757871150970459],"bufferView":62,"byteOffset":0},{"type":"VEC3","componentType":5126,"count":39041,"bufferView":62,"byteOffset":12},{"type":"VEC2","componentType":5126,"count":39041,"bufferView":62,"byteOffset":24},{"type":"VEC3","componentType":5126,"count":18917,"max":[0.1536405235528946,0.062477514147758484,0.1054767370223999],"min":[-0.1401827037334442,-0.04069097340106964,-0.061057671904563904],"bufferView":63,"byteOffset":0},{"type":"VEC3","componentType":5126,"count":18917,"bufferView":63,"byteOffset":12},{"type":"VEC2","componentType":5126,"count":18917,"bufferView":63,"byteOffset":24},{"type":"VEC3","componentType":5126,"count":13432,"max":[0.16371206939220428,0.06736718118190765,0.14538629353046417],"min":[-0.18386787176132202,-0.041031256318092346,-0.08502905070781708],"bufferView":64,"byteOffset":0},{"type":"VEC3","componentType":5126,"count":13432,"bufferView":64,"byteOffset":12},{"type":"VEC2","componentType":5126,"count":13432,"bufferView":64,"byteOffset":24},{"type":"VEC3","componentType":5126,"count":22522,"max":[0.15927165746688843,0.05311250686645508,0.18357862532138824],"min":[-0.18612629175186157,-0.03914213180541992,-0.10838304460048676],"bufferView":65,"byteOffset":0},{"type":"VEC3","componentType":5126,"count":22522,"bufferView":65,"byteOffset":12},{"type":"VEC2","componentType":5126,"count":22522,"bufferView":65,"byteOffset":24},{"type":"VEC3","componentType":5126,"count":18649,"max":[0.07980349659919739,0.07095280289649963,0.04918660223484039],"min":[-0.08016201853752136,-0.08892877399921417,-0.07633218914270401],"bufferView":66,"byteOffset":0},{"type":"VEC3","componentType":5126,"count":18649,"bufferView":66,"byteOffset":12},{"type":"VEC2","componentType":5126,"count":18649,"bufferView":66,"byteOffset":24},{"type":"VEC3","componentType":5126,"count":14101,"max":[0.035560622811317444,0.08850139379501343,0.04646676033735275],"min":[-0.059234604239463806,-0.08123737573623657,-0.06591040641069412],"bufferView":67,"byteOffset":0},{"type":"VEC3","componentType":5126,"count":14101,"bufferView":67,"byteOffset":12},{"type":"VEC2","componentType":5126,"count":14101,"bufferView":67,"byteOffset":24},{"type":"VEC3","componentType":5126,"count":67137,"max":[0.17140203714370728,0.1667013168334961,0.19314557313919067],"min":[-0.23268121480941772,-0.0700998306274414,-0.2554933428764343],"bufferView":68,"byteOffset":0},{"type":"VEC3","componentType":5126,"count":67137,"bufferView":68,"byteOffset":12},{"type":"VEC2","componentType":5126,"count":67137,"bufferView":68,"byteOffset":24},{"type":"VEC3","componentType":5126,"count":13366,"max":[0.07621762156486511,0.1322018951177597,0.08163440227508545],"min":[-0.08181002736091614,-0.07170892506837845,-0.10447703301906586],"bufferView":69,"byteOffset":0},{"type":"VEC3","componentType":5126,"count":13366,"bufferView":69,"byteOffset":12},{"type":"VEC2","componentType":5126,"count":13366,"bufferView":69,"byteOffset":24},{"type":"VEC3","componentType":5126,"count":13162,"max":[0.10530821979045868,0.20072931051254272,0.05626744031906128],"min":[-0.06833679974079132,-0.13084417581558228,-0.13252192735671997],"bufferView":70,"byteOffset":0},{"type":"VEC3","componentType":5126,"count":13162,"bufferView":70,"byteOffset":12},{"type":"VEC2","componentType":5126,"count":13162,"bufferView":70,"byteOffset":24},{"type":"VEC3","componentType":5126,"count":9749,"max":[0.060184046626091,0.054054588079452515,0.05607938766479492],"min":[-0.06491132080554962,-0.06086316704750061,-0.0654454231262207],"bufferView":71,"byteOffset":0},{"type":"VEC3","componentType":5126,"count":9749,"bufferView":71,"byteOffset":12},{"type":"VEC2","componentType":5126,"count":9749,"bufferView":71,"byteOffset":24},{"type":"VEC3","componentType":5126,"count":10747,"max":[0.10980983823537827,0.09040076285600662,0.04996464401483536],"min":[-0.04686740040779114,-0.06267540901899338,-0.07721737027168274],"bufferView":72,"byteOffset":0},{"type":"VEC3","componentType":5126,"count":10747,"bufferView":72,"byteOffset":12},{"type":"VEC2","componentType":5126,"count":10747,"bufferView":72,"byteOffset":24},{"type":"VEC3","componentType":5126,"count":10085,"max":[0.04931647330522537,0.07346394658088684,0.07745328545570374],"min":[-0.04629509896039963,-0.046359509229660034,-0.07531771063804626],"bufferView":73,"byteOffset":0},{"type":"VEC3","componentType":5126,"count":10085,"bufferView":73,"byteOffset":12},{"type":"VEC2","componentType":5126,"count":10085,"bufferView":73,"byteOffset":24},{"type":"VEC3","componentType":5126,"count":7270,"max":[0.03736133873462677,0.09589391946792603,0.022767864167690277],"min":[-0.038127705454826355,-0.05203622579574585,-0.024505767971277237],"bufferView":74,"byteOffset":0},{"type":"VEC3","componentType":5126,"count":7270,"bufferView":74,"byteOffset":12},{"type":"VEC2","componentType":5126,"count":7270,"bufferView":74,"byteOffset":24},{"type":"VEC3","componentType":5126,"count":6012,"max":[0.023090451955795288,0.037231311202049255,0.04512009024620056],"min":[-0.020496279001235962,-0.03994382917881012,-0.047943271696567535],"bufferView":75,"byteOffset":0},{"type":"VEC3","componentType":5126,"count":6012,"bufferView":75,"byteOffset":12},{"type":"VEC2","componentType":5126,"count":6012,"bufferView":75,"byteOffset":24},{"type":"VEC3","componentType":5126,"count":63080,"max":[0.1746366173028946,0.06759601086378098,0.2001952826976776],"min":[-0.1987001895904541,-0.06777233630418777,-0.1749878227710724],"bufferView":76,"byteOffset":0},{"type":"VEC3","componentType":5126,"count":63080,"bufferView":76,"byteOffset":12},{"type":"VEC2","componentType":5126,"count":63080,"bufferView":76,"byteOffset":24},{"type":"VEC3","componentType":5126,"count":27258,"max":[0.17529281973838806,0.06271311640739441,0.1473073810338974],"min":[-0.22454848885536194,-0.04000905156135559,-0.1340647041797638],"bufferView":77,"byteOffset":0},{"type":"VEC3","componentType":5126,"count":27258,"bufferView":77,"byteOffset":12},{"type":"VEC2","componentType":5126,"count":27258,"bufferView":77,"byteOffset":24},{"type":"VEC3","componentType":5126,"count":21812,"max":[0.03596099466085434,0.0905773937702179,0.04857277125120163],"min":[-0.06305710971355438,-0.10384246706962585,-0.04088568687438965],"bufferView":78,"byteOffset":0},{"type":"VEC3","componentType":5126,"count":21812,"bufferView":78,"byteOffset":12},{"type":"VEC2","componentType":5126,"count":21812,"bufferView":78,"byteOffset":24},{"type":"VEC3","componentType":5126,"count":52983,"max":[0.19103923439979553,0.15180960297584534,0.19401653110980988],"min":[-0.20428547263145447,-0.04395684599876404,-0.14616289734840393],"bufferView":79,"byteOffset":0},{"type":"VEC3","componentType":5126,"count":52983,"bufferView":79,"byteOffset":12},{"type":"VEC2","componentType":5126,"count":52983,"bufferView":79,"byteOffset":24},{"type":"VEC3","componentType":5126,"count":20505,"max":[0.07861322164535522,0.06491070985794067,0.03521319106221199],"min":[-0.057395998388528824,-0.0578119158744812,-0.038421910256147385],"bufferView":80,"byteOffset":0},{"type":"VEC3","componentType":5126,"count":20505,"bufferView":80,"byteOffset":12},{"type":"VEC2","componentType":5126,"count":20505,"bufferView":80,"byteOffset":24},{"type":"VEC3","componentType":5126,"count":17637,"max":[0.11576122045516968,0.282684862613678,0.08850054442882538],"min":[-0.07590442895889282,-0.10192054510116577,-0.15864607691764832],"bufferView":81,"byteOffset":0},{"type":"VEC3","componentType":5126,"count":17637,"bufferView":81,"byteOffset":12},{"type":"VEC2","componentType":5126,"count":17637,"bufferView":81,"byteOffset":24},{"type":"VEC3","componentType":5126,"count":14191,"max":[0.04856868088245392,0.10346263647079468,0.0710907056927681],"min":[-0.05804065614938736,-0.12123829126358032,-0.07459258288145065],"bufferView":82,"byteOffset":0},{"type":"VEC3","componentType":5126,"count":14191,"bufferView":82,"byteOffset":12},{"type":"VEC2","componentType":5126,"count":14191,"bufferView":82,"byteOffset":24},{"type":"VEC3","componentType":5126,"count":12960,"max":[0.1044846773147583,0.12884514033794403,0.046337127685546875],"min":[-0.1077192947268486,-0.08131415396928787,-0.03281783312559128],"bufferView":83,"byteOffset":0},{"type":"VEC3","componentType":5126,"count":12960,"bufferView":83,"byteOffset":12},{"type":"VEC2","componentType":5126,"count":12960,"bufferView":83,"byteOffset":24},{"type":"VEC3","componentType":5126,"count":11764,"max":[0.0809398964047432,0.04634103178977966,0.04264792054891586],"min":[-0.07962071895599365,-0.05700674653053284,-0.05423394590616226],"bufferView":84,"byteOffset":0},{"type":"VEC3","componentType":5126,"count":11764,"bufferView":84,"byteOffset":12},{"type":"VEC2","componentType":5126,"count":11764,"bufferView":84,"byteOffset":24},{"type":"VEC3","componentType":5126,"count":11852,"max":[0.16767926514148712,0.048656344413757324,0.15094034373760223],"min":[-0.18783526122570038,-0.016245007514953613,-0.12538106739521027],"bufferView":85,"byteOffset":0},{"type":"VEC3","componentType":5126,"count":11852,"bufferView":85,"byteOffset":12},{"type":"VEC2","componentType":5126,"count":11852,"bufferView":85,"byteOffset":24},{"type":"VEC3","componentType":5126,"count":10999,"max":[0.04359033703804016,0.03931772708892822,0.11794275790452957],"min":[-0.08893606066703796,-0.025066733360290527,-0.09431462734937668],"bufferView":86,"byteOffset":0},{"type":"VEC3","componentType":5126,"count":10999,"bufferView":86,"byteOffset":12},{"type":"VEC2","componentType":5126,"count":10999,"bufferView":86,"byteOffset":24},{"type":"VEC3","componentType":5126,"count":9913,"max":[0.13821354508399963,0.08486112952232361,0.1445312798023224],"min":[-0.11037500202655792,-0.07920899987220764,-0.1604003608226776],"bufferView":87,"byteOffset":0},{"type":"VEC3","componentType":5126,"count":9913,"bufferView":87,"byteOffset":12},{"type":"VEC2","componentType":5126,"count":9913,"bufferView":87,"byteOffset":24},{"type":"VEC3","componentType":5126,"count":7368,"max":[0.01024743914604187,0.06964117288589478,0.21525585651397705],"min":[-0.01972559094429016,-0.053848206996917725,-0.20036303997039795],"bufferView":88,"byteOffset":0},{"type":"VEC3","componentType":5126,"count":7368,"bufferView":88,"byteOffset":12},{"type":"VEC2","componentType":5126,"count":7368,"bufferView":88,"byteOffset":24},{"type":"VEC3","componentType":5126,"count":7084,"max":[0.03889481723308563,0.084893137216568,0.062309060245752335],"min":[-0.04085524380207062,-0.06797704100608826,-0.08247396349906921],"bufferView":89,"byteOffset":0},{"type":"VEC3","componentType":5126,"count":7084,"bufferView":89,"byteOffset":12},{"type":"VEC2","componentType":5126,"count":7084,"bufferView":89,"byteOffset":24},{"type":"VEC3","componentType":5126,"count":43994,"max":[0.0933762639760971,0.06835922598838806,0.1053009107708931],"min":[-0.11103810369968414,-0.07321181893348694,-0.0946960374712944],"bufferView":90,"byteOffset":0},{"type":"VEC3","componentType":5126,"count":43994,"bufferView":90,"byteOffset":12},{"type":"VEC2","componentType":5126,"count":43994,"bufferView":90,"byteOffset":24},{"type":"VEC3","componentType":5126,"count":6597,"max":[0.10413329303264618,0.10755182057619095,0.06911438703536987],"min":[-0.055401161313056946,-0.0608365461230278,-0.03221923112869263],"bufferView":91,"byteOffset":0},{"type":"VEC3","componentType":5126,"count":6597,"bufferView":91,"byteOffset":12},{"type":"VEC2","componentType":5126,"count":6597,"bufferView":91,"byteOffset":24},{"type":"VEC3","componentType":5126,"count":6622,"max":[0.021898377686738968,0.05856311321258545,0.026242956519126892],"min":[-0.02511204406619072,-0.0785599946975708,-0.026037469506263733],"bufferView":92,"byteOffset":0},{"type":"VEC3","componentType":5126,"count":6622,"bufferView":92,"byteOffset":12},{"type":"VEC2","componentType":5126,"count":6622,"bufferView":92,"byteOffset":24},{"type":"VEC3","componentType":5126,"count":6368,"max":[0.025911420583724976,0.04016871750354767,0.03999697417020798],"min":[-0.023143678903579712,-0.04316715896129608,-0.03823865205049515],"bufferView":93,"byteOffset":0},{"type":"VEC3","componentType":5126,"count":6368,"bufferView":93,"byteOffset":12},{"type":"VEC2","componentType":5126,"count":6368,"bufferView":93,"byteOffset":24},{"type":"VEC3","componentType":5126,"count":5979,"max":[0.057175323367118835,0.018165528774261475,0.14666764438152313],"min":[-0.13986141979694366,-0.014704763889312744,-0.10580426454544067],"bufferView":94,"byteOffset":0},{"type":"VEC3","componentType":5126,"count":5979,"bufferView":94,"byteOffset":12},{"type":"VEC2","componentType":5126,"count":5979,"bufferView":94,"byteOffset":24},{"type":"VEC3","componentType":5126,"count":5544,"max":[0.058979034423828125,0.07352443784475327,0.03779207915067673],"min":[-0.06352996826171875,-0.07151798158884048,-0.051632046699523926],"bufferView":95,"byteOffset":0},{"type":"VEC3","componentType":5126,"count":5544,"bufferView":95,"byteOffset":12},{"type":"VEC2","componentType":5126,"count":5544,"bufferView":95,"byteOffset":24},{"type":"VEC3","componentType":5126,"count":5487,"max":[0.021274209022521973,0.03903961554169655,0.044876061379909515],"min":[-0.02535092830657959,-0.03863143548369408,-0.042152442038059235],"bufferView":96,"byteOffset":0},{"type":"VEC3","componentType":5126,"count":5487,"bufferView":96,"byteOffset":12},{"type":"VEC2","componentType":5126,"count":5487,"bufferView":96,"byteOffset":24},{"type":"VEC3","componentType":5126,"count":4773,"max":[0.058106034994125366,0.0739588811993599,0.04110751301050186],"min":[-0.06497135758399963,-0.0737919732928276,-0.03664746135473251],"bufferView":97,"byteOffset":0},{"type":"VEC3","componentType":5126,"count":4773,"bufferView":97,"byteOffset":12},{"type":"VEC2","componentType":5126,"count":4773,"bufferView":97,"byteOffset":24},{"type":"VEC3","componentType":5126,"count":4488,"max":[0.091628797352314,0.01136961579322815,0.15643370151519775],"min":[-0.043686144053936005,-0.008258908987045288,-0.11224305629730225],"bufferView":98,"byteOffset":0},{"type":"VEC3","componentType":5126,"count":4488,"bufferView":98,"byteOffset":12},{"type":"VEC2","componentType":5126,"count":4488,"bufferView":98,"byteOffset":24},{"type":"VEC3","componentType":5126,"count":4681,"max":[0.02687254548072815,0.04232430085539818,0.047367215156555176],"min":[-0.0278073251247406,-0.0351407565176487,-0.046192049980163574],"bufferView":99,"byteOffset":0},{"type":"VEC3","componentType":5126,"count":4681,"bufferView":99,"byteOffset":12},{"type":"VEC2","componentType":5126,"count":4681,"bufferView":99,"byteOffset":24},{"type":"VEC3","componentType":5126,"count":3729,"max":[0.03347012773156166,0.0529668927192688,0.05064014345407486],"min":[-0.01551058329641819,-0.037574946880340576,-0.04928204044699669],"bufferView":100,"byteOffset":0},{"type":"VEC3","componentType":5126,"count":3729,"bufferView":100,"byteOffset":12},{"type":"VEC2","componentType":5126,"count":3729,"bufferView":100,"byteOffset":24},{"type":"VEC3","componentType":5126,"count":39909,"max":[0.16912803053855896,0.11424967646598816,0.13343845307826996],"min":[-0.18663063645362854,-0.07366229593753815,-0.16001857817173004],"bufferView":101,"byteOffset":0},{"type":"VEC3","componentType":5126,"count":39909,"bufferView":101,"byteOffset":12},{"type":"VEC2","componentType":5126,"count":39909,"bufferView":101,"byteOffset":24},{"type":"VEC3","componentType":5126,"count":3857,"max":[0.024866178631782532,0.054233282804489136,0.05704881623387337],"min":[-0.027555391192436218,-0.029949456453323364,-0.03695295751094818],"bufferView":102,"byteOffset":0},{"type":"VEC3","componentType":5126,"count":3857,"bufferView":102,"byteOffset":12},{"type":"VEC2","componentType":5126,"count":3857,"bufferView":102,"byteOffset":24},{"type":"VEC3","componentType":5126,"count":3217,"max":[0.03440873697400093,0.05809721350669861,0.03174210339784622],"min":[-0.03160841390490532,-0.03976503014564514,-0.02757834643125534],"bufferView":103,"byteOffset":0},{"type":"VEC3","componentType":5126,"count":3217,"bufferView":103,"byteOffset":12},{"type":"VEC2","componentType":5126,"count":3217,"bufferView":103,"byteOffset":24},{"type":"VEC3","componentType":5126,"count":3088,"max":[0.015829473733901978,0.025125332176685333,0.03533565253019333],"min":[-0.020063012838363647,-0.034725360572338104,-0.03658664971590042],"bufferView":104,"byteOffset":0},{"type":"VEC3","componentType":5126,"count":3088,"bufferView":104,"byteOffset":12},{"type":"VEC2","componentType":5126,"count":3088,"bufferView":104,"byteOffset":24},{"type":"VEC3","componentType":5126,"count":2993,"max":[0.036624614149332047,0.07327306270599365,0.02847670018672943],"min":[-0.036014851182699203,-0.04883158206939697,-0.03324891999363899],"bufferView":105,"byteOffset":0},{"type":"VEC3","componentType":5126,"count":2993,"bufferView":105,"byteOffset":12},{"type":"VEC2","componentType":5126,"count":2993,"bufferView":105,"byteOffset":24},{"type":"VEC3","componentType":5126,"count":1321,"max":[0.02923399582505226,0.010720044374465942,0.023742560297250748],"min":[-0.025421079248189926,-0.008192270994186401,-0.02376377210021019],"bufferView":106,"byteOffset":0},{"type":"VEC3","componentType":5126,"count":1321,"bufferView":106,"byteOffset":12},{"type":"VEC2","componentType":5126,"count":1321,"bufferView":106,"byteOffset":24},{"type":"VEC3","componentType":5126,"count":39943,"max":[0.1409001350402832,0.13285823166370392,0.1645355522632599],"min":[-0.1775202751159668,-0.10491184890270233,-0.1558074653148651],"bufferView":107,"byteOffset":0},{"type":"VEC3","componentType":5126,"count":39943,"bufferView":107,"byteOffset":12},{"type":"VEC2","componentType":5126,"count":39943,"bufferView":107,"byteOffset":24},{"type":"VEC3","componentType":5126,"count":27886,"max":[0.08197008073329926,0.1643373966217041,0.1047292947769165],"min":[-0.09495557844638824,-0.09763313084840775,-0.0724252462387085],"bufferView":108,"byteOffset":0},{"type":"VEC3","componentType":5126,"count":27886,"bufferView":108,"byteOffset":12},{"type":"VEC2","componentType":5126,"count":27886,"bufferView":108,"byteOffset":24},{"type":"VEC3","componentType":5126,"count":36156,"max":[0.16413800418376923,0.2741084396839142,0.10182280838489532],"min":[-0.08213883638381958,-0.15708966553211212,-0.13342192769050598],"bufferView":109,"byteOffset":0},{"type":"VEC3","componentType":5126,"count":36156,"bufferView":109,"byteOffset":12},{"type":"VEC2","componentType":5126,"count":36156,"bufferView":109,"byteOffset":24},{"type":"VEC3","componentType":5126,"count":30334,"max":[0.16525229811668396,0.09280362725257874,0.13943564891815186],"min":[-0.23251381516456604,-0.058739036321640015,-0.21661292016506195],"bufferView":110,"byteOffset":0},{"type":"VEC3","componentType":5126,"count":30334,"bufferView":110,"byteOffset":12},{"type":"VEC2","componentType":5126,"count":30334,"bufferView":110,"byteOffset":24}],"bufferViews":[{"buffer":1,"byteOffset":25648672,"byteLength":17958},{"buffer":1,"byteOffset":25666632,"byteLength":21202},{"buffer":1,"byteOffset":25687840,"byteLength":3266},{"buffer":1,"byteOffset":25691112,"byteLength":9904},{"buffer":1,"byteOffset":25701016,"byteLength":6896},{"buffer":1,"byteOffset":25707912,"byteLength":7340},{"buffer":1,"byteOffset":25715256,"byteLength":15610},{"buffer":1,"byteOffset":25730872,"byteLength":5730},{"buffer":1,"byteOffset":25736608,"byteLength":6776},{"buffer":1,"byteOffset":25743384,"byteLength":6370},{"buffer":1,"byteOffset":25749760,"byteLength":7112},{"buffer":1,"byteOffset":25756872,"byteLength":6848},{"buffer":1,"byteOffset":25763720,"byteLength":20522},{"buffer":1,"byteOffset":25784248,"byteLength":1942},{"buffer":1,"byteOffset":25786192,"byteLength":2316},{"buffer":1,"byteOffset":25788512,"byteLength":4550},{"buffer":1,"byteOffset":25793064,"byteLength":2492},{"buffer":1,"byteOffset":25795560,"byteLength":4348},{"buffer":1,"byteOffset":25799912,"byteLength":2798},{"buffer":1,"byteOffset":25802712,"byteLength":1872},{"buffer":1,"byteOffset":25804584,"byteLength":43534},{"buffer":1,"byteOffset":25848120,"byteLength":6966},{"buffer":1,"byteOffset":25855088,"byteLength":6680},{"buffer":1,"byteOffset":25861768,"byteLength":16192},{"buffer":1,"byteOffset":25877960,"byteLength":4130},{"buffer":1,"byteOffset":25882096,"byteLength":5222},{"buffer":1,"byteOffset":25887320,"byteLength":6482},{"buffer":1,"byteOffset":25893808,"byteLength":6338},{"buffer":1,"byteOffset":25900152,"byteLength":3866},{"buffer":1,"byteOffset":25904024,"byteLength":3666},{"buffer":1,"byteOffset":25907696,"byteLength":3702},{"buffer":1,"byteOffset":25911400,"byteLength":1746},{"buffer":1,"byteOffset":25913152,"byteLength":694},{"buffer":1,"byteOffset":25913848,"byteLength":2884},{"buffer":1,"byteOffset":25916736,"byteLength":10376},{"buffer":1,"byteOffset":25927112,"byteLength":1466},{"buffer":1,"byteOffset":25928584,"byteLength":1852},{"buffer":1,"byteOffset":25930440,"byteLength":2036},{"buffer":1,"byteOffset":25932480,"byteLength":2628},{"buffer":1,"byteOffset":25935112,"byteLength":1052},{"buffer":1,"byteOffset":25936168,"byteLength":1710},{"buffer":1,"byteOffset":25937880,"byteLength":2922},{"buffer":1,"byteOffset":25940808,"byteLength":2342},{"buffer":1,"byteOffset":25943152,"byteLength":2074},{"buffer":1,"byteOffset":25945232,"byteLength":1360},{"buffer":1,"byteOffset":25946592,"byteLength":18786},{"buffer":1,"byteOffset":25965384,"byteLength":1626},{"buffer":1,"byteOffset":25967016,"byteLength":322},{"buffer":1,"byteOffset":25967344,"byteLength":1276},{"buffer":1,"byteOffset":25968624,"byteLength":504},{"buffer":1,"byteOffset":25969128,"byteLength":322},{"buffer":1,"byteOffset":25969456,"byteLength":16582},{"buffer":1,"byteOffset":25986040,"byteLength":4790},{"buffer":1,"byteOffset":25990832,"byteLength":6488},{"buffer":1,"byteOffset":25997320,"byteLength":9174},{"buffer":0,"byteOffset":0,"byteLength":3044736,"byteStride":32,"target":34962},{"buffer":0,"byteOffset":3044736,"byteLength":14060856,"target":34963},{"buffer":0,"byteOffset":17105592,"byteLength":2347136,"byteStride":32,"target":34962},{"buffer":0,"byteOffset":19452728,"byteLength":485568,"byteStride":32,"target":34962},{"buffer":0,"byteOffset":19938296,"byteLength":858464,"byteStride":32,"target":34962},{"buffer":0,"byteOffset":20796760,"byteLength":866112,"byteStride":32,"target":34962},{"buffer":0,"byteOffset":21662872,"byteLength":742688,"byteStride":32,"target":34962},{"buffer":0,"byteOffset":22405560,"byteLength":1249312,"byteStride":32,"target":34962},{"buffer":1,"byteOffset":0,"byteLength":605344,"byteStride":32,"target":34962},{"buffer":1,"byteOffset":605344,"byteLength":429824,"byteStride":32,"target":34962},{"buffer":1,"byteOffset":1035168,"byteLength":720704,"byteStride":32,"target":34962},{"buffer":1,"byteOffset":1755872,"byteLength":596768,"byteStride":32,"target":34962},{"buffer":1,"byteOffset":2352640,"byteLength":451232,"byteStride":32,"target":34962},{"buffer":1,"byteOffset":2803872,"byteLength":2148384,"byteStride":32,"target":34962},{"buffer":1,"byteOffset":4952256,"byteLength":427712,"byteStride":32,"target":34962},{"buffer":1,"byteOffset":5379968,"byteLength":421184,"byteStride":32,"target":34962},{"buffer":1,"byteOffset":5801152,"byteLength":311968,"byteStride":32,"target":34962},{"buffer":1,"byteOffset":6113120,"byteLength":343904,"byteStride":32,"target":34962},{"buffer":1,"byteOffset":6457024,"byteLength":322720,"byteStride":32,"target":34962},{"buffer":1,"byteOffset":6779744,"byteLength":232640,"byteStride":32,"target":34962},{"buffer":1,"byteOffset":7012384,"byteLength":192384,"byteStride":32,"target":34962},{"buffer":1,"byteOffset":7204768,"byteLength":2018560,"byteStride":32,"target":34962},{"buffer":1,"byteOffset":9223328,"byteLength":872256,"byteStride":32,"target":34962},{"buffer":1,"byteOffset":10095584,"byteLength":697984,"byteStride":32,"target":34962},{"buffer":1,"byteOffset":10793568,"byteLength":1695456,"byteStride":32,"target":34962},{"buffer":1,"byteOffset":12489024,"byteLength":656160,"byteStride":32,"target":34962},{"buffer":1,"byteOffset":13145184,"byteLength":564384,"byteStride":32,"target":34962},{"buffer":1,"byteOffset":13709568,"byteLength":454112,"byteStride":32,"target":34962},{"buffer":1,"byteOffset":14163680,"byteLength":414720,"byteStride":32,"target":34962},{"buffer":1,"byteOffset":14578400,"byteLength":376448,"byteStride":32,"target":34962},{"buffer":1,"byteOffset":14954848,"byteLength":379264,"byteStride":32,"target":34962},{"buffer":1,"byteOffset":15334112,"byteLength":351968,"byteStride":32,"target":34962},{"buffer":1,"byteOffset":15686080,"byteLength":317216,"byteStride":32,"target":34962},{"buffer":1,"byteOffset":16003296,"byteLength":235776,"byteStride":32,"target":34962},{"buffer":1,"byteOffset":16239072,"byteLength":226688,"byteStride":32,"target":34962},{"buffer":1,"byteOffset":16465760,"byteLength":1407808,"byteStride":32,"target":34962},{"buffer":1,"byteOffset":17873568,"byteLength":211104,"byteStride":32,"target":34962},{"buffer":1,"byteOffset":18084672,"byteLength":211904,"byteStride":32,"target":34962},{"buffer":1,"byteOffset":18296576,"byteLength":203776,"byteStride":32,"target":34962},{"buffer":1,"byteOffset":18500352,"byteLength":191328,"byteStride":32,"target":34962},{"buffer":1,"byteOffset":18691680,"byteLength":177408,"byteStride":32,"target":34962},{"buffer":1,"byteOffset":18869088,"byteLength":175584,"byteStride":32,"target":34962},{"buffer":1,"byteOffset":19044672,"byteLength":152736,"byteStride":32,"target":34962},{"buffer":1,"byteOffset":19197408,"byteLength":143616,"byteStride":32,"target":34962},{"buffer":1,"byteOffset":19341024,"byteLength":149792,"byteStride":32,"target":34962},{"buffer":1,"byteOffset":19490816,"byteLength":119328,"byteStride":32,"target":34962},{"buffer":1,"byteOffset":19610144,"byteLength":1277088,"byteStride":32,"target":34962},{"buffer":1,"byteOffset":20887232,"byteLength":123424,"byteStride":32,"target":34962},{"buffer":1,"byteOffset":21010656,"byteLength":102944,"byteStride":32,"target":34962},{"buffer":1,"byteOffset":21113600,"byteLength":98816,"byteStride":32,"target":34962},{"buffer":1,"byteOffset":21212416,"byteLength":95776,"byteStride":32,"target":34962},{"buffer":1,"byteOffset":21308192,"byteLength":42272,"byteStride":32,"target":34962},{"buffer":1,"byteOffset":21350464,"byteLength":1278176,"byteStride":32,"target":34962},{"buffer":1,"byteOffset":22628640,"byteLength":892352,"byteStride":32,"target":34962},{"buffer":1,"byteOffset":23520992,"byteLength":1156992,"byteStride":32,"target":34962},{"buffer":1,"byteOffset":24677984,"byteLength":970688,"byteStride":32,"target":34962}],"samplers":[{"magFilter":9729,"minFilter":9987,"wrapS":10497,"wrapT":10497}],"textures":[{"sampler":0,"extensions":{"EXT_texture_webp":{"source":0}}},{"sampler":0,"extensions":{"EXT_texture_webp":{"source":1}}},{"sampler":0,"extensions":{"EXT_texture_webp":{"source":2}}},{"sampler":0,"extensions":{"EXT_texture_webp":{"source":3}}},{"sampler":0,"extensions":{"EXT_texture_webp":{"source":4}}},{"sampler":0,"extensions":{"EXT_texture_webp":{"source":5}}},{"sampler":0,"extensions":{"EXT_texture_webp":{"source":6}}},{"sampler":0,"extensions":{"EXT_texture_webp":{"source":7}}},{"sampler":0,"extensions":{"EXT_texture_webp":{"source":8}}},{"sampler":0,"extensions":{"EXT_texture_webp":{"source":9}}},{"sampler":0,"extensions":{"EXT_texture_webp":{"source":10}}},{"sampler":0,"extensions":{"EXT_texture_webp":{"source":11}}},{"sampler":0,"extensions":{"EXT_texture_webp":{"source":12}}},{"sampler":0,"extensions":{"EXT_texture_webp":{"source":13}}},{"sampler":0,"extensions":{"EXT_texture_webp":{"source":14}}},{"sampler":0,"extensions":{"EXT_texture_webp":{"source":15}}},{"sampler":0,"extensions":{"EXT_texture_webp":{"source":16}}},{"sampler":0,"extensions":{"EXT_texture_webp":{"source":17}}},{"sampler":0,"extensions":{"EXT_texture_webp":{"source":18}}},{"sampler":0,"extensions":{"EXT_texture_webp":{"source":19}}},{"sampler":0,"extensions":{"EXT_texture_webp":{"source":20}}},{"sampler":0,"extensions":{"EXT_texture_webp":{"source":21}}},{"sampler":0,"extensions":{"EXT_texture_webp":{"source":22}}},{"sampler":0,"extensions":{"EXT_texture_webp":{"source":23}}},{"sampler":0,"extensions":{"EXT_texture_webp":{"source":24}}},{"sampler":0,"extensions":{"EXT_texture_webp":{"source":25}}},{"sampler":0,"extensions":{"EXT_texture_webp":{"source":26}}},{"sampler":0,"extensions":{"EXT_texture_webp":{"source":27}}},{"sampler":0,"extensions":{"EXT_texture_webp":{"source":28}}},{"sampler":0,"extensions":{"EXT_texture_webp":{"source":29}}},{"sampler":0,"extensions":{"EXT_texture_webp":{"source":30}}},{"sampler":0,"extensions":{"EXT_texture_webp":{"source":31}}},{"sampler":0,"extensions":{"EXT_texture_webp":{"source":32}}},{"sampler":0,"extensions":{"EXT_texture_webp":{"source":33}}},{"sampler":0,"extensions":{"EXT_texture_webp":{"source":34}}},{"sampler":0,"extensions":{"EXT_texture_webp":{"source":35}}},{"sampler":0,"extensions":{"EXT_texture_webp":{"source":36}}},{"sampler":0,"extensions":{"EXT_texture_webp":{"source":37}}},{"sampler":0,"extensions":{"EXT_texture_webp":{"source":38}}},{"sampler":0,"extensions":{"EXT_texture_webp":{"source":39}}},{"sampler":0,"extensions":{"EXT_texture_webp":{"source":40}}},{"sampler":0,"extensions":{"EXT_texture_webp":{"source":41}}},{"sampler":0,"extensions":{"EXT_texture_webp":{"source":42}}},{"sampler":0,"extensions":{"EXT_texture_webp":{"source":43}}},{"sampler":0,"extensions":{"EXT_texture_webp":{"source":44}}},{"sampler":0,"extensions":{"EXT_texture_webp":{"source":45}}},{"sampler":0,"extensions":{"EXT_texture_webp":{"source":46}}},{"sampler":0,"extensions":{"EXT_texture_webp":{"source":47}}},{"sampler":0,"extensions":{"EXT_texture_webp":{"source":48}}},{"sampler":0,"extensions":{"EXT_texture_webp":{"source":49}}},{"sampler":0,"extensions":{"EXT_texture_webp":{"source":50}}},{"sampler":0,"extensions":{"EXT_texture_webp":{"source":51}}},{"sampler":0,"extensions":{"EXT_texture_webp":{"source":52}}},{"sampler":0,"extensions":{"EXT_texture_webp":{"source":53}}},{"sampler":0,"extensions":{"EXT_texture_webp":{"source":54}}}],"images":[{"name":"动漫少女3d模型_tripo_part_0_basecolor","mimeType":"image/webp","bufferView":0},{"name":"动漫少女3d模型_tripo_part_1_basecolor","mimeType":"image/webp","bufferView":1},{"name":"动漫少女3d模型_tripo_part_10_basecolor","mimeType":"image/webp","bufferView":2},{"name":"动漫少女3d模型_tripo_part_11_basecolor","mimeType":"image/webp","bufferView":3},{"name":"动漫少女3d模型_tripo_part_12_basecolor","mimeType":"image/webp","bufferView":4},{"name":"动漫少女3d模型_tripo_part_13_basecolor","mimeType":"image/webp","bufferView":5},{"name":"动漫少女3d模型_tripo_part_14_basecolor","mimeType":"image/webp","bufferView":6},{"name":"动漫少女3d模型_tripo_part_15_basecolor","mimeType":"image/webp","bufferView":7},{"name":"动漫少女3d模型_tripo_part_16_basecolor","mimeType":"image/webp","bufferView":8},{"name":"动漫少女3d模型_tripo_part_17_basecolor","mimeType":"image/webp","bufferView":9},{"name":"动漫少女3d模型_tripo_part_18_basecolor","mimeType":"image/webp","bufferView":10},{"name":"动漫少女3d模型_tripo_part_19_basecolor","mimeType":"image/webp","bufferView":11},{"name":"动漫少女3d模型_tripo_part_2_basecolor","mimeType":"image/webp","bufferView":12},{"name":"动漫少女3d模型_tripo_part_20_basecolor","mimeType":"image/webp","bufferView":13},{"name":"动漫少女3d模型_tripo_part_21_basecolor","mimeType":"image/webp","bufferView":14},{"name":"动漫少女3d模型_tripo_part_22_basecolor","mimeType":"image/webp","bufferView":15},{"name":"动漫少女3d模型_tripo_part_23_basecolor","mimeType":"image/webp","bufferView":16},{"name":"动漫少女3d模型_tripo_part_24_basecolor","mimeType":"image/webp","bufferView":17},{"name":"动漫少女3d模型_tripo_part_25_basecolor","mimeType":"image/webp","bufferView":18},{"name":"动漫少女3d模型_tripo_part_26_basecolor","mimeType":"image/webp","bufferView":19},{"name":"动漫少女3d模型_tripo_part_27_basecolor","mimeType":"image/webp","bufferView":20},{"name":"动漫少女3d模型_tripo_part_28_basecolor","mimeType":"image/webp","bufferView":21},{"name":"动漫少女3d模型_tripo_part_29_basecolor","mimeType":"image/webp","bufferView":22},{"name":"动漫少女3d模型_tripo_part_3_basecolor","mimeType":"image/webp","bufferView":23},{"name":"动漫少女3d模型_tripo_part_30_basecolor","mimeType":"image/webp","bufferView":24},{"name":"动漫少女3d模型_tripo_part_31_basecolor","mimeType":"image/webp","bufferView":25},{"name":"动漫少女3d模型_tripo_part_32_basecolor","mimeType":"image/webp","bufferView":26},{"name":"动漫少女3d模型_tripo_part_33_basecolor","mimeType":"image/webp","bufferView":27},{"name":"动漫少女3d模型_tripo_part_34_basecolor","mimeType":"image/webp","bufferView":28},{"name":"动漫少女3d模型_tripo_part_35_basecolor","mimeType":"image/webp","bufferView":29},{"name":"动漫少女3d模型_tripo_part_36_basecolor","mimeType":"image/webp","bufferView":30},{"name":"动漫少女3d模型_tripo_part_37_basecolor","mimeType":"image/webp","bufferView":31},{"name":"动漫少女3d模型_tripo_part_38_basecolor","mimeType":"image/webp","bufferView":32},{"name":"动漫少女3d模型_tripo_part_39_basecolor","mimeType":"image/webp","bufferView":33},{"name":"动漫少女3d模型_tripo_part_4_basecolor","mimeType":"image/webp","bufferView":34},{"name":"动漫少女3d模型_tripo_part_40_basecolor","mimeType":"image/webp","bufferView":35},{"name":"动漫少女3d模型_tripo_part_41_basecolor","mimeType":"image/webp","bufferView":36},{"name":"动漫少女3d模型_tripo_part_42_basecolor","mimeType":"image/webp","bufferView":37},{"name":"动漫少女3d模型_tripo_part_43_basecolor","mimeType":"image/webp","bufferView":38},{"name":"动漫少女3d模型_tripo_part_44_basecolor","mimeType":"image/webp","bufferView":39},{"name":"动漫少女3d模型_tripo_part_45_basecolor","mimeType":"image/webp","bufferView":40},{"name":"动漫少女3d模型_tripo_part_46_basecolor","mimeType":"image/webp","bufferView":41},{"name":"动漫少女3d模型_tripo_part_47_basecolor","mimeType":"image/webp","bufferView":42},{"name":"动漫少女3d模型_tripo_part_48_basecolor","mimeType":"image/webp","bufferView":43},{"name":"动漫少女3d模型_tripo_part_49_basecolor","mimeType":"image/webp","bufferView":44},{"name":"动漫少女3d模型_tripo_part_5_basecolor","mimeType":"image/webp","bufferView":45},{"name":"动漫少女3d模型_tripo_part_50_basecolor","mimeType":"image/webp","bufferView":46},{"name":"动漫少女3d模型_tripo_part_51_basecolor","mimeType":"image/webp","bufferView":47},{"name":"动漫少女3d模型_tripo_part_52_basecolor","mimeType":"image/webp","bufferView":48},{"name":"动漫少女3d模型_tripo_part_53_basecolor","mimeType":"image/webp","bufferView":49},{"name":"动漫少女3d模型_tripo_part_54_basecolor","mimeType":"image/webp","bufferView":50},{"name":"动漫少女3d模型_tripo_part_6_basecolor","mimeType":"image/webp","bufferView":51},{"name":"动漫少女3d模型_tripo_part_7_basecolor","mimeType":"image/webp","bufferView":52},{"name":"动漫少女3d模型_tripo_part_8_basecolor","mimeType":"image/webp","bufferView":53},{"name":"动漫少女3d模型_tripo_part_9_basecolor","mimeType":"image/webp","bufferView":54}],"buffers":[{"uri":"girl-0.bin","byteLength":23654872},{"uri":"girl-1.bin","byteLength":26006496}],"materials":[{"name":"Material_tripo_part_0","doubleSided":true,"pbrMetallicRoughness":{"roughnessFactor":0.8999999761581421,"metallicFactor":0,"baseColorTexture":{"index":0}}},{"name":"Material_tripo_part_1","doubleSided":true,"pbrMetallicRoughness":{"roughnessFactor":0.8999999761581421,"metallicFactor":0,"baseColorTexture":{"index":1}}},{"name":"Material_tripo_part_10","doubleSided":true,"pbrMetallicRoughness":{"roughnessFactor":0.8999999761581421,"metallicFactor":0,"baseColorTexture":{"index":2}}},{"name":"Material_tripo_part_11","doubleSided":true,"pbrMetallicRoughness":{"roughnessFactor":0.8999999761581421,"metallicFactor":0,"baseColorTexture":{"index":3}}},{"name":"Material_tripo_part_12","doubleSided":true,"pbrMetallicRoughness":{"roughnessFactor":0.8999999761581421,"metallicFactor":0,"baseColorTexture":{"index":4}}},{"name":"Material_tripo_part_13","doubleSided":true,"pbrMetallicRoughness":{"roughnessFactor":0.8999999761581421,"metallicFactor":0,"baseColorTexture":{"index":5}}},{"name":"Material_tripo_part_14","doubleSided":true,"pbrMetallicRoughness":{"roughnessFactor":0.8999999761581421,"metallicFactor":0,"baseColorTexture":{"index":6}}},{"name":"Material_tripo_part_15","doubleSided":true,"pbrMetallicRoughness":{"roughnessFactor":0.8999999761581421,"metallicFactor":0,"baseColorTexture":{"index":7}}},{"name":"Material_tripo_part_16","doubleSided":true,"pbrMetallicRoughness":{"roughnessFactor":0.8999999761581421,"metallicFactor":0,"baseColorTexture":{"index":8}}},{"name":"Material_tripo_part_17","doubleSided":true,"pbrMetallicRoughness":{"roughnessFactor":0.8999999761581421,"metallicFactor":0,"baseColorTexture":{"index":9}}},{"name":"Material_tripo_part_18","doubleSided":true,"pbrMetallicRoughness":{"roughnessFactor":0.8999999761581421,"metallicFactor":0,"baseColorTexture":{"index":10}}},{"name":"Material_tripo_part_19","doubleSided":true,"pbrMetallicRoughness":{"roughnessFactor":0.8999999761581421,"metallicFactor":0,"baseColorTexture":{"index":11}}},{"name":"Material_tripo_part_2","doubleSided":true,"pbrMetallicRoughness":{"roughnessFactor":0.8999999761581421,"metallicFactor":0,"baseColorTexture":{"index":12}}},{"name":"Material_tripo_part_20","doubleSided":true,"pbrMetallicRoughness":{"roughnessFactor":0.8999999761581421,"metallicFactor":0,"baseColorTexture":{"index":13}}},{"name":"Material_tripo_part_21","doubleSided":true,"pbrMetallicRoughness":{"roughnessFactor":0.8999999761581421,"metallicFactor":0,"baseColorTexture":{"index":14}}},{"name":"Material_tripo_part_22","doubleSided":true,"pbrMetallicRoughness":{"roughnessFactor":0.8999999761581421,"metallicFactor":0,"baseColorTexture":{"index":15}}},{"name":"Material_tripo_part_23","doubleSided":true,"pbrMetallicRoughness":{"roughnessFactor":0.8999999761581421,"metallicFactor":0,"baseColorTexture":{"index":16}}},{"name":"Material_tripo_part_24","doubleSided":true,"pbrMetallicRoughness":{"roughnessFactor":0.8999999761581421,"metallicFactor":0,"baseColorTexture":{"index":17}}},{"name":"Material_tripo_part_25","doubleSided":true,"pbrMetallicRoughness":{"roughnessFactor":0.8999999761581421,"metallicFactor":0,"baseColorTexture":{"index":18}}},{"name":"Material_tripo_part_26","doubleSided":true,"pbrMetallicRoughness":{"roughnessFactor":0.8999999761581421,"metallicFactor":0,"baseColorTexture":{"index":19}}},{"name":"Material_tripo_part_27","doubleSided":true,"pbrMetallicRoughness":{"roughnessFactor":0.8999999761581421,"metallicFactor":0,"baseColorTexture":{"index":20}}},{"name":"Material_tripo_part_28","doubleSided":true,"pbrMetallicRoughness":{"roughnessFactor":0.8999999761581421,"metallicFactor":0,"baseColorTexture":{"index":21}}},{"name":"Material_tripo_part_29","doubleSided":true,"pbrMetallicRoughness":{"roughnessFactor":0.8999999761581421,"metallicFactor":0,"baseColorTexture":{"index":22}}},{"name":"Material_tripo_part_3","doubleSided":true,"pbrMetallicRoughness":{"roughnessFactor":0.8999999761581421,"metallicFactor":0,"baseColorTexture":{"index":23}}},{"name":"Material_tripo_part_30","doubleSided":true,"pbrMetallicRoughness":{"roughnessFactor":0.8999999761581421,"metallicFactor":0,"baseColorTexture":{"index":24}}},{"name":"Material_tripo_part_31","doubleSided":true,"pbrMetallicRoughness":{"roughnessFactor":0.8999999761581421,"metallicFactor":0,"baseColorTexture":{"index":25}}},{"name":"Material_tripo_part_32","doubleSided":true,"pbrMetallicRoughness":{"roughnessFactor":0.8999999761581421,"metallicFactor":0,"baseColorTexture":{"index":26}}},{"name":"Material_tripo_part_33","doubleSided":true,"pbrMetallicRoughness":{"roughnessFactor":0.8999999761581421,"metallicFactor":0,"baseColorTexture":{"index":27}}},{"name":"Material_tripo_part_34","doubleSided":true,"pbrMetallicRoughness":{"roughnessFactor":0.8999999761581421,"metallicFactor":0,"baseColorTexture":{"index":28}}},{"name":"Material_tripo_part_35","doubleSided":true,"pbrMetallicRoughness":{"roughnessFactor":0.8999999761581421,"metallicFactor":0,"baseColorTexture":{"index":29}}},{"name":"Material_tripo_part_36","doubleSided":true,"pbrMetallicRoughness":{"roughnessFactor":0.8999999761581421,"metallicFactor":0,"baseColorTexture":{"index":30}}},{"name":"Material_tripo_part_37","doubleSided":true,"pbrMetallicRoughness":{"roughnessFactor":0.8999999761581421,"metallicFactor":0,"baseColorTexture":{"index":31}}},{"name":"Material_tripo_part_38","doubleSided":true,"pbrMetallicRoughness":{"roughnessFactor":0.8999999761581421,"metallicFactor":0,"baseColorTexture":{"index":32}}},{"name":"Material_tripo_part_39","doubleSided":true,"pbrMetallicRoughness":{"roughnessFactor":0.8999999761581421,"metallicFactor":0,"baseColorTexture":{"index":33}}},{"name":"Material_tripo_part_4","doubleSided":true,"pbrMetallicRoughness":{"roughnessFactor":0.8999999761581421,"metallicFactor":0,"baseColorTexture":{"index":34}}},{"name":"Material_tripo_part_40","doubleSided":true,"pbrMetallicRoughness":{"roughnessFactor":0.8999999761581421,"metallicFactor":0,"baseColorTexture":{"index":35}}},{"name":"Material_tripo_part_41","doubleSided":true,"pbrMetallicRoughness":{"roughnessFactor":0.8999999761581421,"metallicFactor":0,"baseColorTexture":{"index":36}}},{"name":"Material_tripo_part_42","doubleSided":true,"pbrMetallicRoughness":{"roughnessFactor":0.8999999761581421,"metallicFactor":0,"baseColorTexture":{"index":37}}},{"name":"Material_tripo_part_43","doubleSided":true,"pbrMetallicRoughness":{"roughnessFactor":0.8999999761581421,"metallicFactor":0,"baseColorTexture":{"index":38}}},{"name":"Material_tripo_part_44","doubleSided":true,"pbrMetallicRoughness":{"roughnessFactor":0.8999999761581421,"metallicFactor":0,"baseColorTexture":{"index":39}}},{"name":"Material_tripo_part_45","doubleSided":true,"pbrMetallicRoughness":{"roughnessFactor":0.8999999761581421,"metallicFactor":0,"baseColorTexture":{"index":40}}},{"name":"Material_tripo_part_46","doubleSided":true,"pbrMetallicRoughness":{"roughnessFactor":0.8999999761581421,"metallicFactor":0,"baseColorTexture":{"index":41}}},{"name":"Material_tripo_part_47","doubleSided":true,"pbrMetallicRoughness":{"roughnessFactor":0.8999999761581421,"metallicFactor":0,"baseColorTexture":{"index":42}}},{"name":"Material_tripo_part_48","doubleSided":true,"pbrMetallicRoughness":{"roughnessFactor":0.8999999761581421,"metallicFactor":0,"baseColorTexture":{"index":43}}},{"name":"Material_tripo_part_49","doubleSided":true,"pbrMetallicRoughness":{"roughnessFactor":0.8999999761581421,"metallicFactor":0,"baseColorTexture":{"index":44}}},{"name":"Material_tripo_part_5","doubleSided":true,"pbrMetallicRoughness":{"roughnessFactor":0.8999999761581421,"metallicFactor":0,"baseColorTexture":{"index":45}}},{"name":"Material_tripo_part_50","doubleSided":true,"pbrMetallicRoughness":{"roughnessFactor":0.8999999761581421,"metallicFactor":0,"baseColorTexture":{"index":46}}},{"name":"Material_tripo_part_51","doubleSided":true,"pbrMetallicRoughness":{"roughnessFactor":0.8999999761581421,"metallicFactor":0,"baseColorTexture":{"index":47}}},{"name":"Material_tripo_part_52","doubleSided":true,"pbrMetallicRoughness":{"roughnessFactor":0.8999999761581421,"metallicFactor":0,"baseColorTexture":{"index":48}}},{"name":"Material_tripo_part_53","doubleSided":true,"pbrMetallicRoughness":{"roughnessFactor":0.8999999761581421,"metallicFactor":0,"baseColorTexture":{"index":49}}},{"name":"Material_tripo_part_54","doubleSided":true,"pbrMetallicRoughness":{"roughnessFactor":0.8999999761581421,"metallicFactor":0,"baseColorTexture":{"index":50}}},{"name":"Material_tripo_part_6","doubleSided":true,"pbrMetallicRoughness":{"roughnessFactor":0.8999999761581421,"metallicFactor":0,"baseColorTexture":{"index":51}}},{"name":"Material_tripo_part_7","doubleSided":true,"pbrMetallicRoughness":{"roughnessFactor":0.8999999761581421,"metallicFactor":0,"baseColorTexture":{"index":52}}},{"name":"Material_tripo_part_8","doubleSided":true,"pbrMetallicRoughness":{"roughnessFactor":0.8999999761581421,"metallicFactor":0,"baseColorTexture":{"index":53}}},{"name":"Material_tripo_part_9","doubleSided":true,"pbrMetallicRoughness":{"roughnessFactor":0.8999999761581421,"metallicFactor":0,"baseColorTexture":{"index":54}}}],"meshes":[{"name":"Mesh_0","primitives":[{"attributes":{"POSITION":0,"NORMAL":1,"TEXCOORD_0":2},"mode":4,"material":0,"indices":3}]},{"name":"Mesh_1","primitives":[{"attributes":{"POSITION":58,"NORMAL":59,"TEXCOORD_0":60},"mode":4,"material":1,"indices":4}]},{"name":"Mesh_10","primitives":[{"attributes":{"POSITION":61,"NORMAL":62,"TEXCOORD_0":63},"mode":4,"material":2,"indices":5}]},{"name":"Mesh_11","primitives":[{"attributes":{"POSITION":64,"NORMAL":65,"TEXCOORD_0":66},"mode":4,"material":3,"indices":6}]},{"name":"Mesh_12","primitives":[{"attributes":{"POSITION":67,"NORMAL":68,"TEXCOORD_0":69},"mode":4,"material":4,"indices":7}]},{"name":"Mesh_13","primitives":[{"attributes":{"POSITION":70,"NORMAL":71,"TEXCOORD_0":72},"mode":4,"material":5,"indices":8}]},{"name":"Mesh_14","primitives":[{"attributes":{"POSITION":73,"NORMAL":74,"TEXCOORD_0":75},"mode":4,"material":6,"indices":9}]},{"name":"Mesh_15","primitives":[{"attributes":{"POSITION":76,"NORMAL":77,"TEXCOORD_0":78},"mode":4,"material":7,"indices":10}]},{"name":"Mesh_16","primitives":[{"attributes":{"POSITION":79,"NORMAL":80,"TEXCOORD_0":81},"mode":4,"material":8,"indices":11}]},{"name":"Mesh_17","primitives":[{"attributes":{"POSITION":82,"NORMAL":83,"TEXCOORD_0":84},"mode":4,"material":9,"indices":12}]},{"name":"Mesh_18","primitives":[{"attributes":{"POSITION":85,"NORMAL":86,"TEXCOORD_0":87},"mode":4,"material":10,"indices":13}]},{"name":"Mesh_19","primitives":[{"attributes":{"POSITION":88,"NORMAL":89,"TEXCOORD_0":90},"mode":4,"material":11,"indices":14}]},{"name":"Mesh_2","primitives":[{"attributes":{"POSITION":91,"NORMAL":92,"TEXCOORD_0":93},"mode":4,"material":12,"indices":15}]},{"name":"Mesh_20","primitives":[{"attributes":{"POSITION":94,"NORMAL":95,"TEXCOORD_0":96},"mode":4,"material":13,"indices":16}]},{"name":"Mesh_21","primitives":[{"attributes":{"POSITION":97,"NORMAL":98,"TEXCOORD_0":99},"mode":4,"material":14,"indices":17}]},{"name":"Mesh_22","primitives":[{"attributes":{"POSITION":100,"NORMAL":101,"TEXCOORD_0":102},"mode":4,"material":15,"indices":18}]},{"name":"Mesh_23","primitives":[{"attributes":{"POSITION":103,"NORMAL":104,"TEXCOORD_0":105},"mode":4,"material":16,"indices":19}]},{"name":"Mesh_24","primitives":[{"attributes":{"POSITION":106,"NORMAL":107,"TEXCOORD_0":108},"mode":4,"material":17,"indices":20}]},{"name":"Mesh_25","primitives":[{"attributes":{"POSITION":109,"NORMAL":110,"TEXCOORD_0":111},"mode":4,"material":18,"indices":21}]},{"name":"Mesh_26","primitives":[{"attributes":{"POSITION":112,"NORMAL":113,"TEXCOORD_0":114},"mode":4,"material":19,"indices":22}]},{"name":"Mesh_27","primitives":[{"attributes":{"POSITION":115,"NORMAL":116,"TEXCOORD_0":117},"mode":4,"material":20,"indices":23}]},{"name":"Mesh_28","primitives":[{"attributes":{"POSITION":118,"NORMAL":119,"TEXCOORD_0":120},"mode":4,"material":21,"indices":24}]},{"name":"Mesh_29","primitives":[{"attributes":{"POSITION":121,"NORMAL":122,"TEXCOORD_0":123},"mode":4,"material":22,"indices":25}]},{"name":"Mesh_3","primitives":[{"attributes":{"POSITION":124,"NORMAL":125,"TEXCOORD_0":126},"mode":4,"material":23,"indices":26}]},{"name":"Mesh_30","primitives":[{"attributes":{"POSITION":127,"NORMAL":128,"TEXCOORD_0":129},"mode":4,"material":24,"indices":27}]},{"name":"Mesh_31","primitives":[{"attributes":{"POSITION":130,"NORMAL":131,"TEXCOORD_0":132},"mode":4,"material":25,"indices":28}]},{"name":"Mesh_32","primitives":[{"attributes":{"POSITION":133,"NORMAL":134,"TEXCOORD_0":135},"mode":4,"material":26,"indices":29}]},{"name":"Mesh_33","primitives":[{"attributes":{"POSITION":136,"NORMAL":137,"TEXCOORD_0":138},"mode":4,"material":27,"indices":30}]},{"name":"Mesh_34","primitives":[{"attributes":{"POSITION":139,"NORMAL":140,"TEXCOORD_0":141},"mode":4,"material":28,"indices":31}]},{"name":"Mesh_35","primitives":[{"attributes":{"POSITION":142,"NORMAL":143,"TEXCOORD_0":144},"mode":4,"material":29,"indices":32}]},{"name":"Mesh_36","primitives":[{"attributes":{"POSITION":145,"NORMAL":146,"TEXCOORD_0":147},"mode":4,"material":30,"indices":33}]},{"name":"Mesh_37","primitives":[{"attributes":{"POSITION":148,"NORMAL":149,"TEXCOORD_0":150},"mode":4,"material":31,"indices":34}]},{"name":"Mesh_38","primitives":[{"attributes":{"POSITION":151,"NORMAL":152,"TEXCOORD_0":153},"mode":4,"material":32,"indices":35}]},{"name":"Mesh_39","primitives":[{"attributes":{"POSITION":154,"NORMAL":155,"TEXCOORD_0":156},"mode":4,"material":33,"indices":36}]},{"name":"Mesh_4","primitives":[{"attributes":{"POSITION":157,"NORMAL":158,"TEXCOORD_0":159},"mode":4,"material":34,"indices":37}]},{"name":"Mesh_40","primitives":[{"attributes":{"POSITION":160,"NORMAL":161,"TEXCOORD_0":162},"mode":4,"material":35,"indices":38}]},{"name":"Mesh_41","primitives":[{"attributes":{"POSITION":163,"NORMAL":164,"TEXCOORD_0":165},"mode":4,"material":36,"indices":39}]},{"name":"Mesh_42","primitives":[{"attributes":{"POSITION":166,"NORMAL":167,"TEXCOORD_0":168},"mode":4,"material":37,"indices":40}]},{"name":"Mesh_43","primitives":[{"attributes":{"POSITION":169,"NORMAL":170,"TEXCOORD_0":171},"mode":4,"material":38,"indices":41}]},{"name":"Mesh_44","primitives":[{"attributes":{"POSITION":172,"NORMAL":173,"TEXCOORD_0":174},"mode":4,"material":39,"indices":42}]},{"name":"Mesh_45","primitives":[{"attributes":{"POSITION":175,"NORMAL":176,"TEXCOORD_0":177},"mode":4,"material":40,"indices":43}]},{"name":"Mesh_46","primitives":[{"attributes":{"POSITION":178,"NORMAL":179,"TEXCOORD_0":180},"mode":4,"material":41,"indices":44}]},{"name":"Mesh_47","primitives":[{"attributes":{"POSITION":181,"NORMAL":182,"TEXCOORD_0":183},"mode":4,"material":42,"indices":45}]},{"name":"Mesh_48","primitives":[{"attributes":{"POSITION":184,"NORMAL":185,"TEXCOORD_0":186},"mode":4,"material":43,"indices":46}]},{"name":"Mesh_49","primitives":[{"attributes":{"POSITION":187,"NORMAL":188,"TEXCOORD_0":189},"mode":4,"material":44,"indices":47}]},{"name":"Mesh_5","primitives":[{"attributes":{"POSITION":190,"NORMAL":191,"TEXCOORD_0":192},"mode":4,"material":45,"indices":48}]},{"name":"Mesh_50","primitives":[{"attributes":{"POSITION":193,"NORMAL":194,"TEXCOORD_0":195},"mode":4,"material":46,"indices":49}]},{"name":"Mesh_51","primitives":[{"attributes":{"POSITION":196,"NORMAL":197,"TEXCOORD_0":198},"mode":4,"material":47,"indices":50}]},{"name":"Mesh_52","primitives":[{"attributes":{"POSITION":199,"NORMAL":200,"TEXCOORD_0":201},"mode":4,"material":48,"indices":51}]},{"name":"Mesh_53","primitives":[{"attributes":{"POSITION":202,"NORMAL":203,"TEXCOORD_0":204},"mode":4,"material":49,"indices":52}]},{"name":"Mesh_54","primitives":[{"attributes":{"POSITION":205,"NORMAL":206,"TEXCOORD_0":207},"mode":4,"material":50,"indices":53}]},{"name":"Mesh_6","primitives":[{"attributes":{"POSITION":208,"NORMAL":209,"TEXCOORD_0":210},"mode":4,"material":51,"indices":54}]},{"name":"Mesh_7","primitives":[{"attributes":{"POSITION":211,"NORMAL":212,"TEXCOORD_0":213},"mode":4,"material":52,"indices":55}]},{"name":"Mesh_8","primitives":[{"attributes":{"POSITION":214,"NORMAL":215,"TEXCOORD_0":216},"mode":4,"material":53,"indices":56}]},{"name":"Mesh_9","primitives":[{"attributes":{"POSITION":217,"NORMAL":218,"TEXCOORD_0":219},"mode":4,"material":54,"indices":57}]}],"nodes":[{"name":"tripo_part_0","translation":[-0.10720403492450714,0.0915023609995842,-0.12497422844171524],"mesh":0},{"name":"tripo_part_1","translation":[-0.08636912703514099,0.06960438936948776,0.16889823973178864],"mesh":1},{"name":"tripo_part_10","translation":[0.06298714876174927,-0.45880281925201416,-0.037740085273981094],"mesh":2},{"name":"tripo_part_11","translation":[0.056141793727874756,0.19303645193576813,-0.04615367203950882],"mesh":3},{"name":"tripo_part_12","translation":[0.18720348179340363,0.11667688190937042,0.035890843719244],"mesh":4},{"name":"tripo_part_13","translation":[-0.1928762048482895,-0.0450516939163208,0.101857028901577],"mesh":5},{"name":"tripo_part_14","translation":[0.05618234723806381,-0.32275229692459106,0.1250484585762024],"mesh":6},{"name":"tripo_part_15","translation":[0.026417702436447144,-0.15371017158031464,-0.19277270138263702],"mesh":7},{"name":"tripo_part_16","translation":[0.07695253193378448,-0.19641441106796265,-0.17098690569400787],"mesh":8},{"name":"tripo_part_17","translation":[0.05604630708694458,-0.25092560052871704,-0.1726813167333603],"mesh":9},{"name":"tripo_part_18","translation":[0.060684919357299805,0.20441129803657532,0.08453626930713654],"mesh":10},{"name":"tripo_part_19","translation":[0.10370953381061554,0.3625517785549164,0.034821659326553345],"mesh":11},{"name":"tripo_part_2","translation":[0.07274368405342102,-0.37537261843681335,0.15687331557273865],"mesh":12},{"name":"tripo_part_20","translation":[-0.15896838903427124,-0.12481456249952316,0.21852624416351318],"mesh":13},{"name":"tripo_part_21","translation":[-0.15882785618305206,-0.03579123318195343,0.25445830821990967],"mesh":14},{"name":"tripo_part_22","translation":[0.13381287455558777,-0.2707962691783905,0.26635846495628357],"mesh":15},{"name":"tripo_part_23","translation":[0.002404918661341071,0.10194515436887741,0.09538143128156662],"mesh":16},{"name":"tripo_part_24","translation":[-0.10392642766237259,-0.1713929921388626,-0.042347412556409836],"mesh":17},{"name":"tripo_part_25","translation":[0.0779891237616539,0.33932870626449585,-0.05095551535487175],"mesh":18},{"name":"tripo_part_26","translation":[0.25275352597236633,-0.1341598629951477,-0.11315079778432846],"mesh":19},{"name":"tripo_part_27","translation":[0.12644712626934052,-0.1054701879620552,-0.01528673805296421],"mesh":20},{"name":"tripo_part_28","translation":[0.0540517196059227,-0.32742059230804443,-0.18039599061012268],"mesh":21},{"name":"tripo_part_29","translation":[-0.07418759167194366,0.3181365728378296,-0.10421043634414673],"mesh":22},{"name":"tripo_part_3","translation":[0.03658846765756607,-0.3998350501060486,-0.19263961911201477],"mesh":23},{"name":"tripo_part_30","translation":[0.055299967527389526,-0.44218680262565613,0.048533741384744644],"mesh":24},{"name":"tripo_part_31","translation":[-0.19772452116012573,-0.09867772459983826,0.23842336237430573],"mesh":25},{"name":"tripo_part_32","translation":[0.07656984031200409,0.3088286221027374,0.005875044967979193],"mesh":26},{"name":"tripo_part_33","translation":[0.11720585823059082,0.07127611339092255,-0.10037491470575333],"mesh":27},{"name":"tripo_part_34","translation":[0.07934432476758957,-0.40361297130584717,-0.049985483288764954],"mesh":28},{"name":"tripo_part_35","translation":[0.033822521567344666,-0.36131057143211365,-0.19356296956539154],"mesh":29},{"name":"tripo_part_36","translation":[0.25577566027641296,-0.19955594837665558,-0.07070904225111008],"mesh":30},{"name":"tripo_part_37","translation":[0.011198648251593113,-0.33233532309532166,0.02105914242565632],"mesh":31},{"name":"tripo_part_38","translation":[-0.13669635355472565,-0.07764697074890137,-0.023976536467671394],"mesh":32},{"name":"tripo_part_39","translation":[-0.12885339558124542,-0.2932826578617096,0.041051123291254044],"mesh":33},{"name":"tripo_part_4","translation":[0.027972428128123283,0.4316381514072418,-0.0021187637466937304],"mesh":34},{"name":"tripo_part_40","translation":[-0.17972338199615479,-0.09438375383615494,-0.3046136796474457],"mesh":35},{"name":"tripo_part_41","translation":[0.03498876467347145,0.3375292718410492,-0.09176604449748993],"mesh":36},{"name":"tripo_part_42","translation":[0.26230117678642273,-0.08159966766834259,0.07346584647893906],"mesh":37},{"name":"tripo_part_43","translation":[0.13453197479248047,-0.2911275625228882,-0.1809295415878296],"mesh":38},{"name":"tripo_part_44","translation":[0.0647512748837471,0.11706285923719406,0.09963909536600113],"mesh":39},{"name":"tripo_part_45","translation":[0.23896080255508423,0.011090252548456192,0.05922441929578781],"mesh":40},{"name":"tripo_part_46","translation":[0.14067383110523224,0.11838770657777786,-0.075132817029953],"mesh":41},{"name":"tripo_part_47","translation":[-0.09464795142412186,-0.2897225022315979,-0.16137424111366272],"mesh":42},{"name":"tripo_part_48","translation":[0.22099387645721436,-0.041707318276166916,-0.10460537672042847],"mesh":43},{"name":"tripo_part_49","translation":[0.016451667994260788,0.12630964815616608,-0.02139604464173317],"mesh":44},{"name":"tripo_part_5","translation":[0.08006031066179276,-0.2172459214925766,0.15391813218593597],"mesh":45},{"name":"tripo_part_50","translation":[-0.13511331379413605,-0.41060319542884827,0.006932269316166639],"mesh":46},{"name":"tripo_part_51","translation":[0.03983091935515404,-0.3442089855670929,0.05135113000869751],"mesh":47},{"name":"tripo_part_52","translation":[0.23069599270820618,0.1039402112364769,0.06267620623111725],"mesh":48},{"name":"tripo_part_53","translation":[0.043617602437734604,-0.3245173394680023,-0.0412314347922802],"mesh":49},{"name":"tripo_part_54","translation":[0.03470645472407341,-0.4072493612766266,-0.03995956853032112],"mesh":50},{"name":"tripo_part_6","translation":[0.1315491795539856,-0.021905599161982536,-0.003774577286094427],"mesh":51},{"name":"tripo_part_7","translation":[-0.1859382838010788,-0.09840621799230576,-0.23542889952659607],"mesh":52},{"name":"tripo_part_8","translation":[-0.181490957736969,-0.02603183500468731,-0.15779593586921692],"mesh":53},{"name":"tripo_part_9","translation":[0.069074846804142,-0.30579134821891785,0.18271523714065552],"mesh":54},{"name":"ParentNode","children":[0,1,2,3,4,5,6,7,8,9,10,11,12,13,14,15,16,17,18,19,20,21,22,23,24,25,26,27,28,29,30,31,32,33,34,35,36,37,38,39,40,41,42,43,44,45,46,47,48,49,50,51,52,53,54]}],"scenes":[{"name":"Scene","nodes":[55]}],"scene":0,"extensionsUsed":["EXT_texture_webp"],"extensionsRequired":["EXT_texture_webp"]}